<?xml version="1.0" encoding="UTF-8"?>
<svg id="Layer_1" data-name="Layer 1" xmlns="http://www.w3.org/2000/svg" viewBox="0 0 427.94 592.98">
  <defs>
    <style>
      .cls-1 {
        fill: #79b058;
      }

      .cls-1, .cls-2, .cls-3, .cls-4, .cls-5, .cls-6, .cls-7 {
        stroke-width: 0px;
      }

      .cls-2 {
        fill: #f3908d;
      }

      .cls-3 {
        fill: #efa83e;
      }

      .cls-4 {
        fill: #d6d5d5;
      }

      .cls-5 {
        fill: #153d50;
      }

      .cls-6 {
        fill: #226180;
      }

      .cls-7 {
        fill: #f4c2ac;
      }
    </style>
  </defs>
  <path class="cls-5" d="M221.1,0c1.08.2,2.15.49,3.21.78,7.72,2.1,15.36,5.72,22.83,8.61l44.74,17.17c42.64,16.1,86.14,31.08,128.14,48.74,2.17.91,5.44,1.96,6.58,4.09,2.1,3.91,1.44,10.3.04,14.34-8.87,6.6-50.53,19.6-63.52,23.65-.59,11.12.73,28.45-7.82,36.57,1.4,1.77,2.76,3.56,4.07,5.4,1.31,1.83,2.58,3.69,3.81,5.58,1.23,1.89,2.41,3.81,3.54,5.76,1.14,1.95,2.22,3.92,3.27,5.92,1.04,2,2.03,4.02,2.98,6.07.95,2.05,1.84,4.11,2.69,6.2.85,2.09,1.65,4.19,2.39,6.32.75,2.13,1.45,4.27,2.09,6.43.65,2.16,1.24,4.33,1.78,6.52.54,2.19,1.03,4.39,1.47,6.6.44,2.21.83,4.43,1.16,6.66.33,2.23.62,4.46.84,6.71.23,2.24.4,4.49.53,6.74.12,2.25.19,4.5.2,6.76.02,2.25-.02,4.51-.11,6.76-.09,2.25-.24,4.5-.44,6.74,7.19,3.06,12.98,6.65,17.9,12.87,9.68,12.24,12.62,29.36,10.62,44.55-1.9,14.46-8.7,28.38-20.47,37.3-8.66,6.57-18.34,9.45-29.08,8.03-5.11,14.43-11.49,26.96-19.95,39.72,10.62,4.49,50.83,20.88,55.43,29.93,2.5,4.91,2.59,14.05.89,19.28-1.61,4.98-5.39,6.66-9.73,8.82,2.1,2.46,5.43,5.6,6.66,8.57,1.72,4.15,1.64,8.43,4.25,12.31,1.56,2.32,3.11,4.85,2.97,7.75-.24,4.93-5.11,8.28-8.53,11.19-.07,2.45,1.04,3.98,2.11,6.09,1.89,3.72,3.15,7.41,1.63,11.52-2.1,5.67-6.73,9.48-11.86,12.32-11.93,6.61-26.16,11.13-38.8,16.31l-73.83,30.78c-6.73,2.84-14.17,5.39-20.56,8.85-4.37,2.37-7.37,6.16-12.17,8.07-9.13,3.63-31.01,5.61-39.67.63-2.34-1.35-2.53-3.39-3.37-5.76-7.55-4.62-17.3-7.81-25.48-11.36l-53-23.16c-14.01-5.98-59.28-22.75-67.57-32.13-3.72-4.21-5.66-9.56-5.19-15.19.75-8.99,9.57-19.51,16.13-25.37-1.19-.66-2.38-1.33-3.55-2.02-3.2-1.86-7.46-4.03-8.07-8.11-.75-5.04,4.34-10.18,7.21-13.83-3.9-1.73-7.48-3.38-9.49-7.36-3.28-6.49-1.35-14.75.78-21.33,9.3-9.97,35.69-18.42,48.76-25.04-9.36-13.45-15.86-27.33-22.07-42.4-7,1.93-13.82,1.2-20.54-1.59-11.43-4.74-19.53-14.63-24.26-25.8-6.67-15.76-6.81-35.02-.22-50.83,4.68-11.21,12.13-18.96,23.35-23.67-1.17-16.58-.45-33.11,4.28-49.16,3.22-10.92,8.19-21.77,13.61-31.78,2.2-4.06,10.07-11.8,9.87-16.12-1.17-.61-2.58-1.34-3.41-2.39-5.26-6.69-.11-27.57,1-35.5l-24.55-7.29c6.26,17.55,16.08,44.75,7.64,63.05-4.4,9.54-6.72,3.58-10.94,6.45-2.77,1.89-3.47,4.55-7.16,5.49-3.23.83-5.27-.93-7.83-2.6-3.19-2.08-9.43,5.03-14.01,4.7-3.36-.24-4.9-2.76-6.73-5.23l-.64-.87c-2.23-.37-4.58,1.3-6.68,2.2-2.55,1.09-5.11,1.73-7.75.3-1.97-1.06-2.62-2.5-3.33-4.5.18-4.99,11.99-15.27,15.01-20.32l.59-1-13.85-.07,2.56-1.76c1.21-.83,2.43-1.65,3.51-2.64,12.92-11.89,15.02-34.88,15.74-51.19-6.48-1.84-18.05-3.38-22.04-9.16-2.97-4.3-1.4-8.99-.41-13.66,8.53-4.71,18.64-7.73,27.78-11.13l51.55-18.87C127.55,34.84,174.01,16.68,221.1,0Z"/>
  <path class="cls-6" d="M103.7,165.17l.17.12c-.01,2.11-13.55,21.3-15.64,25.35-7.69,14.86-12.79,29.97-17.22,46.02-.4-.52-.57-1.27-.61-1.92-1.33-21.98,17.75-54.88,33.3-69.57Z"/>
  <path class="cls-6" d="M233.12,125.4c2.48-.1,4.97-.13,7.45-.08,34.06.72,75.38,11.2,99.51,36.47,16.94,17.74,30.74,51.27,30.19,75.73-2.4-5.17-3.66-11.33-5.45-16.79-1.64-5-3.58-9.88-5.83-14.64-2.25-4.76-4.79-9.36-7.61-13.8-19.46-31.24-50.51-52.52-86.13-61.26-10.14-2.49-20.73-2.87-30.78-5.29l-1.35-.33Z"/>
  <path class="cls-3" d="M37.91,104.99l-.58-.92c-2.69-4.18-6.62-6.55-5.49-12.05,1.76-2.55,3.54-3.7,6.65-4.17,2.69-.4,6.6-.07,8.79,1.74,1.36,1.13,2.05,2.63,2,4.4-.13,4.15-4.78,9.08-7.86,11.53.22.42.47.83.67,1.27,2.28,5.01,3.5,11.59,4.9,16.95,4.81,18.5,7.37,32.92-.9,50.76-.37-1.86-.5-3.69-.75-5.56-.28-2.14-.74-4.89-2.51-6.3-2.83,1.27-7.73,11.01-10.91,14.26l-.82.82c.66-5.33,1.15-10.6,1.4-15.96l-7.79,9.45c3.89-11.59,7.23-23.33,8.96-35.45,1.1-7.68.29-25.06,4.24-30.78Z"/>
  <path class="cls-6" d="M242.6,87.64c31.71-2.79,74.6,4.74,103.43,16.77.09,10.74-.04,21.49-.4,32.22-4.12-1.27-9.75-7.47-13.39-10.32-8-6.25-16.72-11.82-25.59-16.76-20.2-11.26-42.09-15.85-64.06-21.92Z"/>
  <path class="cls-6" d="M220.43,17.29c1.61-.21,3.2-.09,4.74.42,18.14,6.01,37.91,15.48,56.05,22.51,40.71,15.88,81.61,31.26,122.7,46.13-14.85,4.69-29.58,10.36-44.28,15.53-4.47-16.85-30.45-32.16-44.71-40.45-13.3-8.03-27.97-14.15-42.75-18.84-45.99-14.6-81.65-9.1-126.4,5.69-5.02,1.66-23.89,9.64-27.47,9.36l-1.22-1.04-1.31,1.48.68.41-.58-.09.12-.67.47,1,.48.11.02-1.79c4.25-2.1,8.9-3.42,13.25-5.33,29.49-12.93,60.47-22.15,90.2-34.43Z"/>
  <path class="cls-1" d="M335.43,409.38c12.23,7.53,26.91,13.98,40.22,19.39-50.14,22.65-101.99,41.34-152.04,64.24-11.76-6.47-24.35-11.69-36.57-17.26l-69.24-31.08-41.31-17.94,34.45-15.01c.89,1.12,1.81,2.22,2.76,3.29,24.06,26.96,61.83,44.31,97.77,46.19,33.11,1.73,67.62-9.23,94.82-27.92,10.41-7.15,19.74-15.51,29.14-23.9Z"/>
  <path class="cls-4" d="M64.11,439.34c8.44.96,135.9,56.87,148.02,64.03,8.55,21.63,9.09,43.84,6.35,66.68-30.19-9.98-60.64-24.93-90.11-37.23-12.68-5.22-25.39-10.37-38.13-15.45-5.99-2.42-12.5-4.56-18.23-7.52-2.23-1.16-4.65-3.02-6.24-4.97-1.3-1.6-1.76-2.57-1.6-4.6,1.75-.56,2.5-.64,4.36-.21,5.95,1.36,12.16,4.44,18.01,6.45,18.79,6.33,37.54,12.8,56.23,19.41,11.67,4.08,25.17,10.09,37.27,11.87l-.19-.78c-14.97-9.37-32.73-15.97-48.69-23.61-10.78-4.93-55.12-23.58-60.77-29.59l.35-.94c13.17-1.44,94.16,34.3,116.58,39.2.29.06.58.12.88.18-16.43-10.59-115.77-54.52-118.61-57.73-1.48-1.67-1.25-2.14-1.01-4.19,7.42-.44,95.65,36.59,110.03,41.76-8.61-6.76-19.01-11.89-28.59-17.11-16.82-9.09-33.76-17.94-50.84-26.53-11.8-6.04-23.96-11.88-35.08-19.12Z"/>
  <path class="cls-4" d="M385.67,441.74l1.56.48c-.23.41-.36.89-.68,1.23-2.62,2.76-27.24,13.35-32.05,15.66-16.52,7.89-32.89,16.06-49.12,24.53-10.72,5.56-22.11,11.08-31.88,18.22,11.48-2.89,22.58-7.99,33.64-12.16,17.42-6.54,34.89-12.95,52.42-19.22,5.63-2.04,13.46-6.42,19.13-7.22,1.95-.27,3.18.11,4.69,1.26l-.26,1.48c-1.24,1.5-2.36,2.47-4.07,3.41-8.08,4.45-17.75,7.6-26.24,11.32-22.01,9.66-44.17,19.09-65.79,29.6-6.82,3.31-14.92,6.32-21.14,10.59l-.04.95c5.58.18,22.5-7.43,28.66-9.61,10.09-3.57,91.92-32.46,95.42-31.83.06.73.14,1.1-.1,1.86-.57,1.84-1.74,3.14-3.32,4.15-5.05,3.26-12.05,5.3-17.66,7.6-12.05,4.88-24.05,9.88-36,15-21.73,9-44.27,18.33-64.74,29.91,15.84-3.12,31.97-9.81,47.33-14.91,18.5-6.14,37.05-11.47,55.74-16.93,3.73-1.09,9.74-4.52,13.42-3.6.14,1.19.49,2.11-.07,3.23-.74,1.49-1.87,2.36-3.35,3.04-19.86,9.17-40.95,16.52-61.27,24.69l-87.43,35.82c-2.49-23.02-2.43-43.41,2.4-66.19,16.97-6.01,33.7-14.79,50.36-21.8,33.35-13.86,66.83-27.39,100.44-40.59Z"/>
  <path class="cls-7" d="M214.5,173.27c4.33-.81,9.58-.64,14-.63,1.86,0,3.73.03,5.59.11,1.86.08,3.72.21,5.58.39,1.86.18,3.71.4,5.55.67,1.85.27,3.68.58,5.51.94,1.83.36,3.65.76,5.46,1.21,1.81.45,3.61.94,5.4,1.48,1.79.54,3.56,1.12,5.31,1.75s3.5,1.29,5.22,2.01c1.72.71,3.43,1.47,5.12,2.26,1.69.8,3.35,1.63,5,2.51,1.64.88,3.27,1.8,4.87,2.76,1.6.96,3.17,1.96,4.72,2.99,1.55,1.04,3.07,2.11,4.57,3.23,1.5,1.11,2.96,2.26,4.4,3.45,1.44,1.19,2.85,2.41,4.23,3.66,1.38,1.26,2.73,2.54,4.04,3.87,8.96,9.03,19.32,21.42,21.49,34.35,1.12,6.66.56,14.06.53,20.82l.44-.64.73-1.08c3.5-5.09,6.09-10.6,8.82-16.12,5.56,12.36,11.5,24.29,15.2,37.4,1.67,5.94,4.32,25.4,6.06,28.79l1.58.24c10.37-8.39,14.07-28.43,17.27-40.81,1.56.85,3.14,1.71,4.62,2.7,7.41,4.9,11.76,13.87,13.53,22.35,2.57,12.31.42,26.6-6.66,37.1-5.45,8.08-12.01,11.63-21.26,13.56-6.47-1.92-10.73-4.93-15.44-9.62-4.72,20.82-12.83,40.12-26.14,56.94-24.81,31.33-59.85,49.08-99.23,53.62-25.27,3.27-53.02-3.75-75.02-16.08-35.78-20.07-58.13-55.35-68.83-94.08-2.43,2.12-4.85,4.2-7.74,5.68-.58.3-1.16.57-1.77.81-.6.24-1.21.45-1.84.63-.62.18-1.25.33-1.89.45-.64.12-1.28.2-1.93.26-.65.05-1.29.07-1.94.06-.65-.01-1.29-.05-1.94-.13-.64-.07-1.28-.18-1.92-.32-.63-.14-1.26-.31-1.88-.51-7.3-2.41-12.67-8.8-15.98-15.49-5.86-11.84-7.09-27.25-2.82-39.77,2.98-8.74,7.88-14.21,16.14-18.14,3.59,15.52,8.57,31.92,20.52,43.11,3.62-22.76,8.26-44.09,19.06-64.74,2.66,4.76,6.04,12.17,10.63,15.27,2.01-2.08.75-13.19,1.17-16.84,1.06-9.31,5.09-16.85,10.82-24.05,22.1-27.77,56.18-44.33,91.04-48.36Z"/>
  <path class="cls-5" d="M175.04,206.26c1.6-.2,3.43-.45,4.98.12,5.92,2.18,12.09,15.15,15.08,20.4-17.08-6.01-31.89-2.98-48.22,3.91-5.19,2.14-9.4,6.07-14.58,7.93-1.44-1.27-1.43-1.75-1.76-3.61-.66-3.78.87-7.55,3.14-10.52,8.97-11.72,27.46-16.43,41.35-18.23Z"/>
  <path class="cls-5" d="M261.41,205.33c11.77-.63,26,3.18,36.01,9.39,5.65,3.51,12.87,11.45,13.77,18.4.26,2.03.15,2.44-.98,3.96-2.76.46-6.78-2.88-9.26-4.35-18.08-8.88-33.5-11.15-52.93-5.73,4.01-7.33,7.86-15.35,13.39-21.67Z"/>
  <path class="cls-5" d="M171.46,251.5c1.58.05,3.12.07,4.62.61,3.44,1.24,5.71,4.57,7.2,7.74,4.82,10.27,4.97,28.24,1.09,38.88-1.83,5.02-3.53,7.19-8.32,9.49-.91-.02-.84,0-1.92-.17-3.76-.61-6.29-2.32-8.38-5.48-6.01-9.08-5.66-25.49-3.41-35.85,1.42-6.56,3.37-11.5,9.12-15.22Z"/>
  <path class="cls-5" d="M267.36,251.52c1.03-.03,2.16-.11,3.19,0,3.57.42,6.1,2.26,8.12,5.19,6.28,9.13,6.18,25.76,4.1,36.33-1.34,6.78-3.22,11.66-9.05,15.57-1.19.1-2.4.23-3.6.17-3.16-.15-5.68-1.49-7.68-3.91-6.01-7.28-5.85-20.93-5.03-29.93.81-8.88,2.88-17.48,9.95-23.43Z"/>
  <path class="cls-2" d="M287.59,314.99c1.73-5.41,5.02-8.58,10.14-11.07,6.49-3.17,15.55-2.97,22.24-.55,7.64,2.77,13.31,8.72,16.49,16.13,2.85,6.65,3.47,14.63.59,21.39-1.98,4.66-5.69,8.57-10.52,10.25-2.91,1.01-6.1.98-8.82-.58-3.07-1.77-4.95-5.15-5.7-8.52-.39-1.72-.61-3.5-.84-5.25.36.33.72.68,1.09,1,1.45,1.19,1.63,1.64,3.51,1.42.67-1.25.89-1.93.83-3.39-.18-4.69-4.28-10.05-7.65-13.01-5.56-4.89-13.89-8.15-21.37-7.81Z"/>
  <path class="cls-2" d="M127.36,339.96c.7,2.86,1.07,6.03-.75,8.61-1.79,2.54-4.22,3.73-7.26,4.06-4.24.47-8.66-1.06-11.89-3.81-3.76-3.21-5.75-7.73-6.14-12.61-.68-8.4,3.09-19.4,8.58-25.72,5.13-5.91,12.31-8.88,20.05-9.25,8.34-.39,17.72,2.03,23.85,7.93,2.11,2.03,2.49,3.27,2.58,6.17-4.89-1.47-12.99,1.16-17.28,3.49-6.09,3.31-12.81,9.16-14.58,16.16-.53,2.08-.6,3.7.47,5.57,1.72-.06.94.16,2.36-.6Z"/>
  <path class="cls-5" d="M287.59,314.99c7.48-.34,15.81,2.91,21.37,7.81,3.36,2.95,7.46,8.32,7.65,13.01.06,1.46-.17,2.14-.83,3.39-1.88.23-2.06-.22-3.51-1.42-.38-.31-.73-.66-1.09-1-2.81-2.98-5.56-5.29-8.87-7.68-8.99,28.33-21.06,54.08-48.72,68.5-16.18,8.44-35.49,10.76-52.93,5.02-20.84-6.85-39.59-25.5-49.27-44.9-3.02-6.04-6.78-24.01-13.23-26.04-1.11-.35-2.34-.07-3.37.42-2.66,1.29-5.9,5.39-7.41,7.86-1.42.76-.64.53-2.36.6-1.07-1.88-1-3.49-.47-5.57,1.77-7,8.49-12.85,14.58-16.16,4.29-2.33,12.39-4.96,17.28-3.49-4.77,3.64-9.29,7.39-13.71,11.44,17.56,12.87,37.8,18.88,59.25,21.38,31.78,3.7,72.54-1.77,98.27-22.2-3.79-3.58-8.43-6.3-12.57-9.48l-.05-1.5Z"/>
  <path class="cls-2" d="M214.8,386.36c3.91-.15,7.76-.17,11.66.11,5.44.38,14.91.51,18.69,4.86.11,1.42.41,1.69-.47,2.93-3.44,4.83-11.74,5.63-17.19,6.48-4.68.35-9.45.5-14.12-.1-5.85-.75-12.77-2.25-16.52-7.17-.13-1.21-.54-1.82.35-2.81,3.53-3.94,12.58-3.91,17.6-4.3Z"/>
  <path class="cls-4" d="M166.72,351.93c9.69,1.29,19.24,3.91,29,5.13,27.27,3.41,52.71-.24,79.38-5.36-1.74,3.53-3.54,6.58-5.83,9.78-1.52,1.45-3.06,2.94-4.8,4.12-14.53,9.88-53.79,6.94-70.26,4.09-14.7-2.55-18.93-5.63-27.5-17.76Z"/>
</svg>