<svg width="500" height="500" viewBox="0 0 500 500" fill="none" xmlns="http://www.w3.org/2000/svg">
<path d="M452.28 117.546C450.62 114.791 448.9 112.086 447.09 109.44C423.09 74.2447 383.14 50.1486 344.32 39.2386C327.31 34.4473 309.85 31.9419 292.42 31.303C178.08 27.1606 136.07 121.259 99.23 145.525C62.39 169.79 5.84998 211.235 12.95 298.296C18.33 364.495 56.06 427.79 124.96 456.587C132.55 459.771 140.52 462.536 148.87 464.822C164.4 469.084 181.23 471.769 199.37 472.568C251.46 474.884 293.76 462.346 335.13 430.784C344.75 423.447 354.31 415.173 366.79 414.264C375.86 413.605 384.46 416.859 374.98 425.613C363.84 435.895 376.69 456.128 404.99 442.073C452.24 418.596 471.68 367.949 480.84 316.453C492.08 253.238 486.63 174.622 452.28 117.546Z" fill="#92E3A9"/>
<path opacity="0.7" d="M452.28 117.546C450.62 114.791 448.9 112.086 447.09 109.44C423.09 74.2447 383.14 50.1486 344.32 39.2386C327.31 34.4473 309.85 31.9419 292.42 31.303C178.08 27.1606 136.07 121.259 99.23 145.525C62.39 169.79 5.84998 211.235 12.95 298.296C18.33 364.495 56.06 427.79 124.96 456.587C132.55 459.771 140.52 462.536 148.87 464.822C164.4 469.084 181.23 471.769 199.37 472.568C251.46 474.884 293.76 462.346 335.13 430.784C344.75 423.447 354.31 415.173 366.79 414.264C375.86 413.605 384.46 416.859 374.98 425.613C363.84 435.895 376.69 456.128 404.99 442.073C452.24 418.596 471.68 367.949 480.84 316.453C492.08 253.238 486.63 174.622 452.28 117.546Z" fill="white"/>
<path d="M39.12 399.102H475.76" stroke="#263238" stroke-linecap="round" stroke-linejoin="round"/>
<path d="M22.92 399.102H32.2" stroke="#263238" stroke-linecap="round" stroke-linejoin="round"/>
<path d="M399.05 277.274C399.05 277.274 396.54 284.162 391.21 285.1C385.88 286.038 376.46 275.707 382.43 270.377C388.39 265.057 396.55 273.511 399.06 277.264L399.05 277.274Z" fill="#92E3A9" stroke="#263238" stroke-linecap="round" stroke-linejoin="round"/>
<path d="M407.21 243.456C407.21 243.456 399.37 262.561 402.5 271.954C405.64 281.347 425.09 288.234 430.74 276.026C436.39 263.809 423.84 246.59 419.13 242.827C414.42 239.074 408.78 240.322 407.21 243.456Z" fill="#92E3A9" stroke="#263238" stroke-linecap="round" stroke-linejoin="round"/>
<path d="M453.02 251.601C453.02 251.601 439.53 263.819 437.96 276.027C436.39 288.244 445.49 292.626 454.9 291.059C464.31 289.492 469.02 265.695 466.19 254.735C463.37 243.775 453.01 251.601 453.01 251.601H453.02Z" fill="#92E3A9" stroke="#263238" stroke-linecap="round" stroke-linejoin="round"/>
<path d="M455.53 319.237C455.53 319.237 440.47 319.866 439.84 327.063C439.21 334.27 446.43 335.827 453.64 329.568C460.86 323.31 461.8 319.547 455.52 319.237H455.53Z" fill="#92E3A9" stroke="#263238" stroke-linecap="round" stroke-linejoin="round"/>
<path d="M440.09 328.79C440.09 328.79 451.96 323.37 457.3 322.432" stroke="#263238" stroke-linecap="round" stroke-linejoin="round"/>
<path d="M418.19 334.27C418.19 334.27 416.62 341.786 410.97 344.601C405.32 347.416 395.28 341.467 400.62 332.384C405.95 323.3 415.37 330.507 418.19 334.26V334.27Z" fill="#92E3A9" stroke="#263238" stroke-linecap="round" stroke-linejoin="round"/>
<path d="M405.02 310.783C405.02 310.783 402.2 304.524 391.22 308.587C380.24 312.66 375.85 318.918 382.75 321.114C389.65 323.31 405.03 310.783 405.03 310.783H405.02Z" fill="#92E3A9" stroke="#263238" stroke-linecap="round" stroke-linejoin="round"/>
<path d="M402.91 310.503C402.91 310.503 391.28 311.761 384.99 317.091" stroke="#263238" stroke-linecap="round" stroke-linejoin="round"/>
<path d="M436.39 235.63C436.39 235.63 438.27 240.012 442.04 239.074C445.8 238.135 446.75 232.496 452.71 234.063C458.67 235.63 463.69 242.517 463.69 239.383C463.69 236.249 456.16 228.114 447.69 228.114C439.22 228.114 436.71 231.557 436.4 235.63H436.39Z" fill="#92E3A9" stroke="#263238" stroke-linecap="round" stroke-linejoin="round"/>
<path d="M428.84 361.071C428.84 361.071 430.25 334.869 428.84 318.489C427.43 302.109 420.87 282.924 420.87 282.924L412.97 247.728" stroke="#263238" stroke-linecap="round" stroke-linejoin="round"/>
<path d="M432.12 361.071C432.12 361.071 432.59 339.551 434.46 325.506C436.34 311.472 443.84 289.472 443.84 289.472L457.93 259.337" stroke="#263238" stroke-linecap="round" stroke-linejoin="round"/>
<path d="M440.09 328.79C440.09 328.79 436.81 329.728 434.93 361.55" stroke="#263238" stroke-linecap="round" stroke-linejoin="round"/>
<path d="M424.15 360.602C424.15 360.602 425.09 343.753 423.21 337.674C421.33 331.595 418.19 334.27 418.19 334.27C418.19 334.27 409.51 335.288 406.37 340.309" stroke="#263238" stroke-linecap="round" stroke-linejoin="round"/>
<path d="M426.3 331.255C428.75 344.97 426.49 360.133 426.49 360.133" stroke="#263238" stroke-linecap="round" stroke-linejoin="round"/>
<path d="M405.02 310.783C405.02 310.783 418.53 308.198 424.15 323.171C424.7 324.638 425.17 326.175 425.56 327.752" stroke="#263238" stroke-linecap="round" stroke-linejoin="round"/>
<path d="M461.4 296.279C461.4 296.279 464.22 290.021 475.2 294.083C486.18 298.156 490.57 304.414 483.67 306.61C476.77 308.806 461.39 296.279 461.39 296.279H461.4Z" fill="#92E3A9" stroke="#263238" stroke-linecap="round" stroke-linejoin="round"/>
<path d="M463.9 296.689C463.9 296.689 475.22 296.06 480.56 302.648" stroke="#263238" stroke-linecap="round" stroke-linejoin="round"/>
<path d="M449.39 299.024C446.67 300.881 444.07 303.876 442.26 308.667C436.63 323.639 437.28 360.612 437.28 360.612" stroke="#263238" stroke-linecap="round" stroke-linejoin="round"/>
<path d="M461.4 296.279C461.4 296.279 456.92 295.421 452.05 297.547" stroke="#263238" stroke-linecap="round" stroke-linejoin="round"/>
<path d="M413.85 286.827C416.78 290.26 419.62 294.902 421.81 301.17C429.31 322.691 432.12 350.301 430.72 360.602" stroke="#263238" stroke-linecap="round" stroke-linejoin="round"/>
<path d="M412.22 285.04C405.6 278.292 399.06 277.274 399.06 277.274C399.06 277.274 389.4 274.719 385.63 278.173" stroke="#263238" stroke-linecap="round" stroke-linejoin="round"/>
<path d="M432.9 306.97C432.44 334.14 432.12 361.071 432.12 361.071" stroke="#263238" stroke-linecap="round" stroke-linejoin="round"/>
<path d="M432.96 303.596C433.27 285.629 433.63 268.051 434 258.598C434.94 234.263 436.39 235.63 436.39 235.63C436.39 235.63 438.13 230.17 447.87 230.799" stroke="#263238" stroke-linecap="round" stroke-linejoin="round"/>
<path d="M447.14 408.804H416.64C414.55 408.804 412.8 407.217 412.6 405.141L408.22 360.143H455.57L451.19 405.141C450.99 407.217 449.24 408.804 447.15 408.804H447.14Z" fill="#263238" stroke="#263238" stroke-linecap="round" stroke-linejoin="round"/>
<path d="M409.62 374.646L410.12 379.787H453.65L454.15 374.646H409.62Z" fill="white" stroke="#263238" stroke-linecap="round" stroke-linejoin="round"/>
<path d="M452.55 391.027L452.83 388.212H410.94L411.22 391.027H452.55Z" fill="white" stroke="#263238" stroke-linecap="round" stroke-linejoin="round"/>
<path d="M56.7 185.332V194.186" stroke="#263238" stroke-linecap="round" stroke-linejoin="round"/>
<path d="M61.13 189.754H52.26" stroke="#263238" stroke-linecap="round" stroke-linejoin="round"/>
<path d="M433.89 208.141V216.994" stroke="#263238" stroke-linecap="round" stroke-linejoin="round"/>
<path d="M438.32 212.562H429.45" stroke="#263238" stroke-linecap="round" stroke-linejoin="round"/>
<path d="M386.18 105.977V114.831" stroke="#263238" stroke-linecap="round" stroke-linejoin="round"/>
<path d="M390.61 110.409H381.74" stroke="#263238" stroke-linecap="round" stroke-linejoin="round"/>
<path d="M206.88 54.5107V63.3646" stroke="#263238" stroke-linecap="round" stroke-linejoin="round"/>
<path d="M211.31 58.9429H202.44" stroke="#263238" stroke-linecap="round" stroke-linejoin="round"/>
<path d="M151.47 374.417V383.271" stroke="#263238" stroke-linecap="round" stroke-linejoin="round"/>
<path d="M155.91 378.839H147.04" stroke="#263238" stroke-linecap="round" stroke-linejoin="round"/>
<path d="M41.4301 310.294V319.148" stroke="#263238" stroke-linecap="round" stroke-linejoin="round"/>
<path d="M45.87 314.726H37" stroke="#263238" stroke-linecap="round" stroke-linejoin="round"/>
<path d="M355.196 79.2318C356.123 75.2983 353.68 71.3593 349.74 70.4338C345.799 69.5084 341.853 71.9468 340.926 75.8803C339.999 79.8138 342.442 83.7527 346.382 84.6782C350.323 85.6037 354.269 83.1652 355.196 79.2318Z" stroke="#263238" stroke-linecap="round" stroke-linejoin="round"/>
<path d="M336.006 375.72C336.933 371.786 334.49 367.847 330.549 366.922C326.609 365.996 322.663 368.435 321.735 372.368C320.808 376.302 323.251 380.24 327.192 381.166C331.132 382.091 335.079 379.653 336.006 375.72Z" stroke="#263238" stroke-linecap="round" stroke-linejoin="round"/>
<path d="M41.5312 253.344C45.2713 251.798 47.0474 247.518 45.4982 243.785C43.949 240.052 39.6612 238.279 35.9211 239.825C32.181 241.371 30.4049 245.651 31.9541 249.385C33.5033 253.118 37.7911 254.891 41.5312 253.344Z" stroke="#263238" stroke-linecap="round" stroke-linejoin="round"/>
<path d="M388.73 152.422C388.73 153.34 387.98 154.089 387.06 154.089C386.14 154.089 385.39 153.34 385.39 152.422C385.39 151.504 386.14 150.755 387.06 150.755C387.98 150.755 388.73 151.504 388.73 152.422Z" stroke="#263238" stroke-linecap="round" stroke-linejoin="round"/>
<path d="M126.21 77.6884C126.21 78.6068 125.46 79.3554 124.54 79.3554C123.62 79.3554 122.87 78.6068 122.87 77.6884C122.87 76.7701 123.62 76.0215 124.54 76.0215C125.46 76.0215 126.21 76.7701 126.21 77.6884Z" stroke="#263238" stroke-linecap="round" stroke-linejoin="round"/>
<path d="M262.28 370.215C262.28 371.133 261.53 371.882 260.61 371.882C259.69 371.882 258.94 371.133 258.94 370.215C258.94 369.296 259.69 368.548 260.61 368.548C261.53 368.548 262.28 369.296 262.28 370.215Z" stroke="#263238" stroke-linecap="round" stroke-linejoin="round"/>
<path d="M248.2 374.706L244.87 347.975H190.97L187.64 374.706C187.59 375.235 187.53 375.754 187.46 376.273C186.18 385.546 180.22 393.512 171.96 397.923L157.52 405.629H278.33L263.89 397.923C255.62 393.512 249.67 385.536 248.39 376.273C248.32 375.754 248.26 375.225 248.21 374.706H248.2Z" fill="white" stroke="#263238" stroke-linecap="round" stroke-linejoin="round"/>
<path d="M246.38 364.944L244.87 347.975H231.86H203.98H190.97L189.47 364.944H246.38Z" fill="#263238" stroke="#263238" stroke-linecap="round" stroke-linejoin="round"/>
<path d="M278.16 405.639H157.52V408.803H278.16V405.639Z" fill="white" stroke="#263238" stroke-linecap="round" stroke-linejoin="round"/>
<path d="M192.25 387.373H236.21" stroke="#263238" stroke-linecap="round" stroke-linejoin="round"/>
<path d="M247.54 387.373H242.1" stroke="#263238" stroke-linecap="round" stroke-linejoin="round"/>
<path d="M80.5199 119.242H355.32C359.71 119.242 363.27 122.796 363.27 127.178V343.214C363.27 348.833 358.7 353.395 353.07 353.395H82.7699C77.1399 353.395 72.5699 348.833 72.5699 343.214V127.178C72.5699 122.796 76.1299 119.242 80.5199 119.242Z" fill="white" stroke="#263238" stroke-linecap="round" stroke-linejoin="round"/>
<path d="M363.27 314.586V127.787C363.27 123.065 359.44 119.242 354.71 119.242H81.1299C76.3999 119.242 72.5699 123.065 72.5699 127.787V314.586H363.27Z" fill="#263238" stroke="#263238" stroke-linecap="round" stroke-linejoin="round"/>
<path d="M350.18 128.445H85.6499V314.586H350.18V128.445Z" fill="#92E3A9" stroke="#263238" stroke-linecap="round" stroke-linejoin="round"/>
<path d="M119.38 140.903H288.58C292.12 140.903 294.99 143.768 294.99 147.301V158.002H112.97V147.301C112.97 143.768 115.84 140.903 119.38 140.903Z" fill="#263238" stroke="#263238" stroke-linecap="round" stroke-linejoin="round"/>
<path d="M261.35 149.457C261.35 150.915 260.17 152.093 258.71 152.093C257.25 152.093 256.07 150.915 256.07 149.457C256.07 148 257.25 146.822 258.71 146.822C260.17 146.822 261.35 148 261.35 149.457Z" fill="white" stroke="#263238" stroke-linecap="round" stroke-linejoin="round"/>
<path d="M271.9 149.457C271.9 150.915 270.72 152.093 269.26 152.093C267.8 152.093 266.62 150.915 266.62 149.457C266.62 148 267.8 146.822 269.26 146.822C270.72 146.822 271.9 148 271.9 149.457Z" fill="white" stroke="#263238" stroke-linecap="round" stroke-linejoin="round"/>
<path d="M282.46 149.457C282.46 150.915 281.28 152.093 279.82 152.093C278.36 152.093 277.18 150.915 277.18 149.457C277.18 148 278.36 146.822 279.82 146.822C281.28 146.822 282.46 148 282.46 149.457Z" fill="white" stroke="#263238" stroke-linecap="round" stroke-linejoin="round"/>
<path d="M119.37 140.903H288.57C292.11 140.903 294.98 143.768 294.98 147.301V288.613C294.98 292.107 292.14 294.952 288.63 294.952H119.31C115.81 294.952 112.96 292.117 112.96 288.613V147.301C112.96 143.768 115.83 140.903 119.37 140.903Z" stroke="#263238" stroke-linecap="round" stroke-linejoin="round"/>
<path d="M121.65 154.119V295.481" stroke="#263238" stroke-width="0.25" stroke-linecap="round" stroke-linejoin="round"/>
<path d="M132.67 154.119V295.481" stroke="#263238" stroke-width="0.25" stroke-linecap="round" stroke-linejoin="round"/>
<path d="M143.69 154.119V295.481" stroke="#263238" stroke-width="0.25" stroke-linecap="round" stroke-linejoin="round"/>
<path d="M154.71 154.119V295.481" stroke="#263238" stroke-width="0.25" stroke-linecap="round" stroke-linejoin="round"/>
<path d="M165.72 154.119V295.481" stroke="#263238" stroke-width="0.25" stroke-linecap="round" stroke-linejoin="round"/>
<path d="M176.74 154.119V295.481" stroke="#263238" stroke-width="0.25" stroke-linecap="round" stroke-linejoin="round"/>
<path d="M187.76 154.119V295.481" stroke="#263238" stroke-width="0.25" stroke-linecap="round" stroke-linejoin="round"/>
<path d="M198.78 154.119V295.481" stroke="#263238" stroke-width="0.25" stroke-linecap="round" stroke-linejoin="round"/>
<path d="M209.8 154.119V295.481" stroke="#263238" stroke-width="0.25" stroke-linecap="round" stroke-linejoin="round"/>
<path d="M220.82 154.119V295.481" stroke="#263238" stroke-width="0.25" stroke-linecap="round" stroke-linejoin="round"/>
<path d="M231.83 154.119V295.481" stroke="#263238" stroke-width="0.25" stroke-linecap="round" stroke-linejoin="round"/>
<path d="M242.85 154.119V295.481" stroke="#263238" stroke-width="0.25" stroke-linecap="round" stroke-linejoin="round"/>
<path d="M253.87 154.119V295.481" stroke="#263238" stroke-width="0.25" stroke-linecap="round" stroke-linejoin="round"/>
<path d="M264.89 154.119V295.481" stroke="#263238" stroke-width="0.25" stroke-linecap="round" stroke-linejoin="round"/>
<path d="M275.91 154.119V295.481" stroke="#263238" stroke-width="0.25" stroke-linecap="round" stroke-linejoin="round"/>
<path d="M286.93 154.119V295.481" stroke="#263238" stroke-width="0.25" stroke-linecap="round" stroke-linejoin="round"/>
<path d="M113.22 168.373H295.35" stroke="#263238" stroke-width="0.25" stroke-linecap="round" stroke-linejoin="round"/>
<path d="M113.22 181.708H295.35" stroke="#263238" stroke-width="0.25" stroke-linecap="round" stroke-linejoin="round"/>
<path d="M113.22 195.044H295.35" stroke="#263238" stroke-width="0.25" stroke-linecap="round" stroke-linejoin="round"/>
<path d="M113.22 208.37H295.35" stroke="#263238" stroke-width="0.25" stroke-linecap="round" stroke-linejoin="round"/>
<path d="M113.22 221.706H295.35" stroke="#263238" stroke-width="0.25" stroke-linecap="round" stroke-linejoin="round"/>
<path d="M113.22 235.031H295.35" stroke="#263238" stroke-width="0.25" stroke-linecap="round" stroke-linejoin="round"/>
<path d="M113.22 248.367H295.35" stroke="#263238" stroke-width="0.25" stroke-linecap="round" stroke-linejoin="round"/>
<path d="M113.22 261.702H295.35" stroke="#263238" stroke-width="0.25" stroke-linecap="round" stroke-linejoin="round"/>
<path d="M113.22 275.028H295.35" stroke="#263238" stroke-width="0.25" stroke-linecap="round" stroke-linejoin="round"/>
<path d="M113.22 288.364H295.35" stroke="#263238" stroke-width="0.25" stroke-linecap="round" stroke-linejoin="round"/>
<path d="M372.88 208.12C372.88 208.12 368.25 212.083 368.25 212.901C368.25 213.72 366.93 222.304 366.93 222.304L373.21 224.949L375.86 220.498C375.86 220.498 377.18 218.681 378.17 217.034C379.16 215.387 381.48 213.57 381.48 213.57L379 213.071L376.02 216.205L375.69 211.753L372.88 208.12Z" fill="white" stroke="#263238" stroke-linecap="round" stroke-linejoin="round"/>
<path d="M366.93 222.314C366.93 222.314 357.84 232.875 355.03 236.508C352.22 240.142 344.28 248.227 341.47 253.338C338.66 258.458 339.32 264.727 341.8 266.703C344.28 268.68 354.03 264.397 358.17 255.973C362.3 247.558 373.21 224.949 373.21 224.949L366.93 222.304V222.314Z" fill="white" stroke="#263238" stroke-linecap="round" stroke-linejoin="round"/>
<path d="M377.84 188.815C377.84 188.815 376.52 193.597 375.53 195.743C374.54 197.889 369.74 199.705 370.24 200.364C370.74 201.023 373.22 203.169 373.22 203.169C373.22 203.169 373.39 214.059 374.87 214.389C376.36 214.718 381.48 213.56 381.48 213.56L380.49 221.156L393.22 219.34L394.38 208.609C394.38 208.609 400 204.317 400 200.195C400 196.072 393.39 187.817 387.1 186.17C380.82 184.523 379.66 185.671 377.84 188.815Z" fill="white" stroke="#263238" stroke-linecap="round" stroke-linejoin="round"/>
<path d="M377.94 196.401C377.8 197.23 377.41 197.849 377.06 197.789C376.71 197.729 376.54 197.02 376.68 196.192C376.82 195.363 377.21 194.744 377.56 194.804C377.91 194.864 378.08 195.573 377.94 196.401Z" fill="#263238"/>
<path d="M377.78 193.347C377.78 192.868 378.9 192.229 379.22 193.826" stroke="#263238" stroke-linecap="round" stroke-linejoin="round"/>
<path d="M373.96 204.976C373.96 204.976 374.92 205.135 376.35 204.337" stroke="#263238" stroke-linecap="round" stroke-linejoin="round"/>
<path d="M384.79 177.586C384.79 177.586 387.27 173.134 382.64 174.122C378.01 175.11 371.73 184.184 374.04 188.316C376.35 192.439 379.5 190.792 379.5 190.792C379.5 190.792 380.99 192.938 382.15 194.096C383.31 195.254 384.8 196.401 384.8 196.401C384.8 196.401 385.96 206.303 387.94 208.939C389.92 211.584 392.24 212.402 394.06 211.414C395.88 210.426 399.02 208.11 399.02 208.11C399.02 208.11 406.96 202.171 407.45 196.891C407.95 191.61 407.62 188.306 404.64 184.683C401.66 181.05 397.2 179.403 397.2 179.403C397.2 179.403 398.52 174.951 394.55 174.621C390.58 174.292 384.8 177.596 384.8 177.596L384.79 177.586Z" fill="#263238" stroke="#263238" stroke-linecap="round" stroke-linejoin="round"/>
<path d="M382.47 198.048C382.47 198.048 385.78 193.756 387.26 195.243C388.74 196.731 387.43 202.171 386.27 203.987C385.11 205.804 382.3 204.317 382.14 203.488" fill="white"/>
<path d="M382.47 198.048C382.47 198.048 385.78 193.756 387.26 195.243C388.74 196.731 387.43 202.171 386.27 203.987C385.11 205.804 382.3 204.317 382.14 203.488" stroke="#263238" stroke-linecap="round" stroke-linejoin="round"/>
<path d="M373.54 226.107L378.67 220.168L396.64 218.262L398.01 223.961L373.54 226.107Z" fill="white" stroke="#263238" stroke-linecap="round" stroke-linejoin="round"/>
<path d="M406.23 291.538L403.95 288.333L403.83 303.795C403.83 303.795 408.51 299.353 408.73 296.908C408.95 294.462 406.23 291.538 406.23 291.538Z" fill="white" stroke="#263238" stroke-linecap="round" stroke-linejoin="round"/>
<path d="M412.56 228.583C412.56 228.583 431.41 266.873 432.73 269.508C434.05 272.153 431.24 273.142 431.24 273.142L408.73 296.908L406.23 291.538L415.86 268.021L407.1 253.997C407.1 253.997 411.89 230.07 412.56 228.583Z" fill="white" stroke="#263238" stroke-linecap="round" stroke-linejoin="round"/>
<path d="M412.79 240.87L415.87 268.021L410.97 259.706L412.79 240.87Z" fill="#263238" stroke="#263238" stroke-linecap="round" stroke-linejoin="round"/>
<path d="M361.52 290.2C361.52 290.2 361.52 290.62 361.5 291.388C361.39 299.444 360.85 346.308 362.24 363.048C363.76 381.394 366.6 408.714 366.6 408.714C366.6 408.714 364.7 409.283 364.7 410.241C364.7 411.2 364.13 414.064 364.13 414.064C364.13 414.064 359.96 416.36 357.11 417.309C354.26 418.257 351.99 420.173 353.32 421.132C354.65 422.09 360.9 422.848 367.16 423.617C373.42 424.386 378.16 424.575 378.92 423.807C379.68 423.038 379.49 418.836 379.3 417.309C379.11 415.781 379.49 412.727 379.3 410.241C379.11 407.756 378.16 405.66 378.16 404.123C378.16 402.585 379.11 356.739 379.11 356.739L381.95 339.54L384.6 328.65C384.6 328.65 386.12 356.739 386.69 358.077C387.26 359.414 396.95 409.642 396.95 409.642L395.81 411.549L396 414.034C396 414.034 393.91 416.141 391.26 417.478C388.61 418.816 386.14 419.584 388.04 421.112C389.94 422.639 397.71 423.018 399.42 423.218C401.13 423.407 407.19 423.597 407.95 423.407C408.71 423.218 409.85 423.407 410.04 420.732C410.23 418.057 409.47 415.192 409.28 414.424C409.09 413.655 408.52 410.98 408.33 408.505C408.14 406.019 407.57 403.534 407.57 403.534L404.71 353.305L405.66 304.005C405.66 304.005 405.66 299.424 405.09 295.411C404.52 291.398 403.95 288.344 403.95 288.344L362.24 286.627" fill="#263238"/>
<path d="M361.52 290.2C361.52 290.2 361.52 290.62 361.5 291.388C361.39 299.444 360.85 346.308 362.24 363.047C363.76 381.394 366.6 408.714 366.6 408.714C366.6 408.714 364.7 409.283 364.7 410.241C364.7 411.2 364.13 414.064 364.13 414.064C364.13 414.064 359.96 416.36 357.11 417.309C354.26 418.257 351.99 420.173 353.32 421.132C354.65 422.09 360.9 422.848 367.16 423.617C373.42 424.386 378.16 424.575 378.92 423.807C379.68 423.038 379.49 418.836 379.3 417.309C379.11 415.781 379.49 412.727 379.3 410.241C379.11 407.756 378.16 405.66 378.16 404.123C378.16 402.585 379.11 356.739 379.11 356.739L381.95 339.54L384.6 328.65C384.6 328.65 386.12 356.739 386.69 358.077C387.26 359.414 396.95 409.642 396.95 409.642L395.81 411.549L396 414.034C396 414.034 393.91 416.141 391.26 417.478C388.61 418.816 386.14 419.584 388.04 421.112C389.94 422.639 397.71 423.018 399.42 423.218C401.13 423.407 407.19 423.597 407.95 423.407C408.71 423.218 409.85 423.407 410.04 420.732C410.23 418.057 409.47 415.192 409.28 414.424C409.09 413.655 408.52 410.98 408.33 408.505C408.14 406.019 407.57 403.534 407.57 403.534L404.71 353.305L405.66 304.005C405.66 304.005 405.66 299.424 405.09 295.411C404.52 291.398 403.95 288.344 403.95 288.344L362.24 286.627" stroke="#263238" stroke-linecap="round" stroke-linejoin="round"/>
<path d="M343.78 257.301L355.68 243.606C355.68 243.606 364.11 229.252 364.77 227.924C365.43 226.607 373.53 226.108 373.53 226.108L398 223.961C398 223.961 412.22 227.425 412.55 228.583C412.88 229.741 411.91 253.458 411.41 256.752C410.91 260.056 404.94 290.959 404.45 292.776C403.95 294.593 397.01 295.581 385.44 296.24C373.87 296.898 363.95 292.776 363.12 292.117C362.29 291.458 361.47 290.799 361.63 289.642C361.8 288.484 364.28 260.435 364.28 260.435C364.28 260.435 351.72 269.179 348.74 269.838C345.76 270.497 340.64 267.532 339.98 263.399C339.32 259.277 341.8 257.131 341.8 257.131" fill="white"/>
<path d="M343.78 257.301L355.68 243.606C355.68 243.606 364.11 229.252 364.77 227.924C365.43 226.607 373.53 226.108 373.53 226.108L398 223.961C398 223.961 412.22 227.425 412.55 228.583C412.88 229.741 411.91 253.458 411.41 256.752C410.91 260.056 404.94 290.959 404.45 292.776C403.95 294.593 397.01 295.581 385.44 296.24C373.87 296.898 363.95 292.776 363.12 292.117C362.29 291.458 361.47 290.799 361.63 289.642C361.8 288.484 364.28 260.435 364.28 260.435C364.28 260.435 351.72 269.179 348.74 269.838C345.76 270.497 340.64 267.532 339.98 263.399C339.32 259.277 341.8 257.131 341.8 257.131" stroke="#263238" stroke-linecap="round" stroke-linejoin="round"/>
<path d="M398.99 242.308C398.99 242.308 388.96 261.912 384.36 267.762" stroke="#263238" stroke-linecap="round" stroke-linejoin="round"/>
<path d="M394.81 254.825L389.38 264.418" stroke="#263238" stroke-linecap="round" stroke-linejoin="round"/>
<path d="M375.53 249.544L364.29 260.435L374.2 256.142" stroke="#263238" stroke-linecap="round" stroke-linejoin="round"/>
<path d="M206.28 314.516H232.36L233.25 265.605L222.7 201.083L192.51 201.482L206.81 271.674L206.28 314.516Z" fill="white" stroke="#263238" stroke-linecap="round" stroke-linejoin="round"/>
<path d="M225.44 268.51L232.28 314.516H268.57C267.26 309.256 256.21 264.777 256.21 262.052C256.21 259.157 248.41 210.855 246.4 207.96C244.39 205.066 217.41 193.936 217.41 193.936L220.09 209.518L225.44 268.5V268.51Z" fill="#263238" stroke="#263238" stroke-linecap="round" stroke-linejoin="round"/>
<path d="M242.83 229.561C245.08 239.822 247.52 250.223 248.64 260.674C249.85 271.914 247.96 283.912 247.33 295.171C247.08 299.653 247.26 303.935 247.55 308.427" stroke="#8C8C8C" stroke-linecap="round" stroke-linejoin="round"/>
<path d="M182.83 182.038C190.407 182.038 196.55 176.067 196.55 168.702C196.55 161.337 190.407 155.367 182.83 155.367C175.253 155.367 169.11 161.337 169.11 168.702C169.11 176.067 175.253 182.038 182.83 182.038Z" fill="#828282" stroke="#263238" stroke-linecap="round" stroke-linejoin="round"/>
<path d="M155.13 314.516H206.35C206.91 308.547 209.93 276.475 210.94 269.618C212.05 262.052 199.79 213.081 199.79 213.081L190.42 191.71L152.51 206.842L167 284.521L155.12 314.506L155.13 314.516Z" fill="#263238" stroke="#263238" stroke-linecap="round" stroke-linejoin="round"/>
<path d="M192.03 185.591C192.03 185.591 190.43 185.591 188.82 187.548C187.85 188.736 185.91 197.32 185.61 199.107C185.08 202.311 184.36 225.778 184.36 225.778C184.36 225.778 201.82 216.884 202.53 216.884C203.24 216.884 211.08 220.258 211.08 220.258C211.08 220.258 213.57 219.899 214.29 219.37C215 218.841 219.28 212.971 219.28 212.971L234.42 222.574C234.42 222.574 223.02 196.072 220.35 191.81C217.68 187.538 215.72 186.3 213.94 185.761C212.16 185.232 192.03 185.581 192.03 185.581V185.591Z" fill="white" stroke="#263238" stroke-linecap="round" stroke-linejoin="round"/>
<path d="M191.5 162.114C191.5 162.114 193.46 177.226 192.75 182.207C192.04 187.188 190.43 184.693 192.04 190.392C193.64 196.082 205.76 214.758 208.25 217.952C210.74 221.156 213.24 220.088 214.13 216.704C215.02 213.321 215.73 192.698 215.73 192.698L218.22 183.625L191.5 162.104V162.114Z" fill="white" stroke="#263238" stroke-linecap="round" stroke-linejoin="round"/>
<path d="M201.38 179.882L214.75 195.933L215.73 192.708L218.22 183.635L201.38 179.882Z" fill="#263238" stroke="#263238" stroke-linecap="round" stroke-linejoin="round"/>
<path d="M233.43 146.423C233.43 146.423 233.09 160.827 233.25 163.891C233.41 166.955 233.09 172.445 230.82 177.137C228.56 181.818 221.6 186.34 217.88 186.34C214.16 186.34 206.72 183.595 201.38 179.882C196.75 176.658 192.16 170.679 190.86 168.902C189.57 167.125 187.62 159.699 187.62 159.699L186.49 153.56L185.36 148.549C185.36 148.549 195.55 148.868 201.05 143.219C206.55 137.569 218.2 126.419 218.2 126.419L231.79 140.144L233.43 146.413V146.423Z" fill="white" stroke="#263238" stroke-linecap="round" stroke-linejoin="round"/>
<path d="M220.31 152.262C220.31 152.262 220.15 156.944 221.28 158.88C222.41 160.817 225.49 163.242 224.68 164.53C223.87 165.817 219.18 165.987 218.69 165.658" stroke="#263238" stroke-linecap="round" stroke-linejoin="round"/>
<path d="M209.96 168.902C209.96 168.902 212.71 174.072 219.67 173.264" stroke="#263238" stroke-linecap="round" stroke-linejoin="round"/>
<path d="M215.13 149.358C215.13 149.358 210.44 146.124 205.1 148.709" stroke="#263238" stroke-linecap="round" stroke-linejoin="round"/>
<path d="M222.41 148.389C222.41 148.389 226.78 144.357 230.5 147.9" stroke="#263238" stroke-linecap="round" stroke-linejoin="round"/>
<path d="M211.25 156.305C211.25 157.822 210.56 159.05 209.71 159.05C208.86 159.05 208.17 157.822 208.17 156.305C208.17 154.788 208.86 153.56 209.71 153.56C210.56 153.56 211.25 154.788 211.25 156.305Z" fill="#263238"/>
<path d="M228.24 155.816C228.24 157.333 227.55 158.561 226.7 158.561C225.85 158.561 225.16 157.333 225.16 155.816C225.16 154.299 225.85 153.071 226.7 153.071C227.55 153.071 228.24 154.299 228.24 155.816Z" fill="#263238"/>
<path d="M217.71 130.592C217.71 130.592 215.37 137.858 209 143.828C202.63 149.797 193.01 151.613 193.01 151.613C193.01 151.613 193.53 154.079 192.88 154.987C192.23 155.896 190.8 156.804 190.8 156.804C190.8 156.804 187.03 157.453 183.52 153.69C180.01 149.926 180.4 132.668 187.03 124.114C193.66 115.549 214.06 114.252 219.91 116.717C225.76 119.183 223.55 120.35 223.55 120.35C223.55 120.35 232.65 124.373 238.24 130.861C243.83 137.349 233.43 146.433 233.43 146.433L217.7 130.602L217.71 130.592Z" fill="#828282" stroke="#263238" stroke-linecap="round" stroke-linejoin="round"/>
<path d="M184.88 153.071C184.88 153.071 183.1 129.334 197.01 117.865L203.16 116.248C203.16 116.248 189.08 129.494 187.95 153.55L184.88 153.061V153.071Z" fill="#263238" stroke="#263238" stroke-linecap="round" stroke-linejoin="round"/>
<path d="M193.5 158.161C195.63 162.284 194.62 167.035 191.24 168.772C187.86 170.509 183.4 168.572 181.27 164.45C179.14 160.327 180.15 155.576 183.53 153.839C186.91 152.102 191.37 154.039 193.5 158.161Z" fill="#263238" stroke="#263238" stroke-linecap="round" stroke-linejoin="round"/>
<path d="M190.06 164.38C190.06 164.38 199.61 176.818 211.25 181.18" stroke="#263238" stroke-linecap="round" stroke-linejoin="round"/>
<path d="M214.11 181.988C213.65 183.086 212.13 183.505 210.72 182.916C209.31 182.327 208.54 180.95 209.01 179.852C209.47 178.754 210.99 178.335 212.4 178.924C213.81 179.513 214.58 180.89 214.11 181.988Z" fill="#263238" stroke="#263238" stroke-linecap="round" stroke-linejoin="round"/>
<path d="M204.12 263.879C204.12 263.879 210.1 259.637 210.58 259.167C211.05 258.698 214.99 253.348 216.09 251.781C217.19 250.214 219.24 248.796 220.66 247.539C222.08 246.281 224.44 243.456 225.54 241.569C226.64 239.683 228.06 237.956 228.53 240.002C229 242.049 227.74 244.404 227.27 245.822C226.8 247.239 225.22 249.755 225.22 249.755C225.22 249.755 231.05 246.141 234.51 245.512C237.97 244.883 242.38 244.883 242.54 245.981C242.7 247.079 241.6 247.399 240.02 248.028C238.45 248.657 234.19 250.224 232.62 250.853C231.05 251.481 226.79 254.626 226.79 254.626C226.79 254.626 234.82 252.739 236.55 252.27C238.28 251.801 242.53 251.641 243.48 251.641C244.43 251.641 245.21 253.368 243.95 254.316C242.69 255.254 240.17 256.512 240.17 256.512C240.17 256.512 239.23 258.079 237.81 259.656C236.39 261.224 234.82 263.27 233.24 265.626C231.67 267.981 229.3 269.708 226.78 270.966C224.26 272.224 213.55 273.322 213.55 273.322L206.31 276.935L204.11 263.889L204.12 263.879Z" fill="white" stroke="#263238" stroke-linecap="round" stroke-linejoin="round"/>
<path d="M240.18 256.482C240.18 256.482 230.42 258.838 228.21 260.415" stroke="#263238" stroke-linecap="round" stroke-linejoin="round"/>
<path d="M234.98 262.931C234.98 262.931 229.47 265.606 228.84 265.755" stroke="#263238" stroke-linecap="round" stroke-linejoin="round"/>
<path d="M166.57 201.961C166.57 201.961 150.29 205.964 149.85 208.42C149.4 210.865 137.81 285.878 137.14 289.212C136.47 292.546 135.58 298.116 137.81 298.565C140.04 299.014 206.71 278.312 206.71 278.312L203.49 262.311L168.58 266.294L173.71 234.911" fill="#263238"/>
<path d="M166.57 201.961C166.57 201.961 150.29 205.964 149.85 208.42C149.4 210.865 137.81 285.878 137.14 289.212C136.47 292.546 135.58 298.116 137.81 298.565C140.04 299.014 206.71 278.312 206.71 278.312L203.49 262.311L168.58 266.294L173.71 234.911" stroke="#263238" stroke-linecap="round" stroke-linejoin="round"/>
<path d="M166.51 266.543L150.73 267.372" stroke="#8C8C8C" stroke-linecap="round" stroke-linejoin="round"/>
<path d="M197.21 263.908L166.51 266.543L173.17 240.93" stroke="#8C8C8C" stroke-linecap="round" stroke-linejoin="round"/>
</svg>
