<svg width="45" height="45" viewBox="0 0 45 45" fill="none" xmlns="http://www.w3.org/2000/svg">
<path d="M14 14L30.21 30.21" stroke="white" stroke-opacity="0.5" stroke-linecap="round" stroke-linejoin="round"/>
<path d="M20.754 20.9141C20.4737 21.2315 20.3037 21.6486 20.3037 22.1054C20.3037 23.1001 21.1101 23.9065 22.1048 23.9065C22.5616 23.9065 22.9786 23.7365 23.2962 23.4562" stroke="white" stroke-opacity="0.5" stroke-linecap="round" stroke-linejoin="round"/>
<path d="M17.9281 18.1075C16.4135 19.1689 15.1518 20.6811 14 22.105C15.7008 24.7986 18.7565 27.5084 22.105 27.5084C23.5008 27.5084 24.8458 27.0375 26.0629 26.2933" stroke="white" stroke-opacity="0.5" stroke-linecap="round" stroke-linejoin="round"/>
<path d="M22.105 16.7021C25.7148 16.7021 28.1401 19.5463 30.21 22.1055C29.9232 22.5596 29.5979 23.0143 29.2392 23.4563" stroke="white" stroke-opacity="0.5" stroke-linecap="round" stroke-linejoin="round"/>
</svg>
