<?xml version="1.0" encoding="UTF-8"?>
<svg id="Layer_1" data-name="Layer 1" xmlns="http://www.w3.org/2000/svg" viewBox="0 0 2058.33 276.29">
  <defs>
    <style>
      .cls-1 {
        fill: #79b058;
      }

      .cls-1, .cls-2, .cls-3 {
        stroke-width: 0px;
      }

      .cls-2 {
        fill: #efa83e;
      }

      .cls-3 {
        fill: #153d50;
      }
    </style>
  </defs>
  <g>
    <path class="cls-1" d="M1184.01,212.17V11.56c0-2.7,1.8-4.8,4.5-4.8h75.38c36.64,0,58.26,24.02,58.26,54.06,0,23.12-13.81,37.24-26.13,43.55,19.22,5.41,40.24,21.32,40.24,52.55,0,35.74-24.63,60.06-75.68,60.06h-72.08c-2.7,0-4.5-2.1-4.5-4.8ZM1252.48,88.14c12.91,0,20.72-4.8,20.72-18.32s-7.81-17.42-20.72-17.42h-17.12v35.74h17.12ZM1257.28,171.33c15.02,0,25.83-6.31,25.83-21.92s-10.81-21.32-25.83-21.32h-21.92v43.25h21.92Z"/>
    <path class="cls-1" d="M1359.99,159.62v-84.99c0-2.7,2.1-4.81,4.8-4.81h40.84c2.7,0,4.81,2.1,4.81,4.81v72.37c0,18.32,7.51,27.33,22.22,27.33s22.52-9.01,22.52-27.33v-72.37c0-2.7,2.1-4.81,4.8-4.81h40.54c2.7,0,5.1,2.1,5.1,4.81v137.54c0,2.7-2.4,4.8-5.1,4.8h-39.34c-2.7,0-4.5-1.2-4.8-5.1l-1.2-16.52c-8.41,15.02-21.62,25.23-42.34,25.23-30.33,0-52.85-22.82-52.85-60.96Z"/>
    <path class="cls-1" d="M1529.07,143.4c0-43.24,27.93-77.18,68.47-77.18,18.32,0,31.23,5.41,40.84,15.92V7.06c0-2.7,2.1-4.81,4.8-4.81h41.14c2.7,0,4.8,2.1,4.8,4.81v205.11c0,2.7-2.4,4.8-5.1,4.8h-36.94c-2.7,0-4.8-2.1-4.8-4.8l-.6-12.31c-9.91,12.91-24.03,20.72-44.15,20.72-40.54,0-68.47-33.63-68.47-77.18ZM1608.95,174.93c17.72,0,30.03-12.61,30.03-31.83s-12.31-31.23-30.03-31.23-30.63,12.61-30.63,31.53,13.21,31.53,30.63,31.53Z"/>
    <path class="cls-1" d="M1712.86,143.4c0-43.24,27.93-77.18,68.47-77.18,18.32,0,31.23,5.41,40.84,15.92V7.06c0-2.7,2.1-4.81,4.8-4.81h41.14c2.7,0,4.8,2.1,4.8,4.81v205.11c0,2.7-2.4,4.8-5.1,4.8h-36.94c-2.7,0-4.8-2.1-4.8-4.8l-.6-12.31c-9.91,12.91-24.03,20.72-44.15,20.72-40.54,0-68.47-33.63-68.47-77.18ZM1792.74,174.93c17.72,0,30.03-12.61,30.03-31.83s-12.31-31.23-30.03-31.23-30.63,12.61-30.63,31.53,13.21,31.53,30.63,31.53Z"/>
    <path class="cls-1" d="M1930.59,268.63l21.62-51.65-57.06-142.05c-1.2-3.3.6-5.11,3.9-5.11h41.74c2.4,0,4.81,1.2,5.71,3.6l30.03,84.69,30.33-84.69c.9-2.4,3.3-3.6,5.71-3.6h41.74c3.3,0,4.8,1.8,3.6,5.11l-77.78,195.5c-.9,2.4-3.3,3.6-5.71,3.6h-39.94c-3.6,0-5.71-1.8-3.9-5.41Z"/>
  </g>
  <g>
    <g>
      <path class="cls-3" d="M0,110.51C0,48.35,49.85,2.1,109.01,2.1c30.33,0,56.16,12.31,74.78,31.83,2.1,2.1.9,4.2-.6,6.01l-26.73,28.53c-1.5,2.1-4.2,2.1-6.01.6-11.11-9.61-24.93-15.62-41.44-15.62-31.83,0-56.16,24.02-56.16,57.06s24.33,56.76,56.16,56.76c16.52,0,30.33-6.01,41.44-15.62,1.8-1.5,4.5-1.5,6.31.6l26.43,28.53c1.5,1.5,2.7,3.6.6,5.71-18.62,19.82-44.45,32.13-74.78,32.13C49.85,218.63,0,172.68,0,110.51Z"/>
      <path class="cls-3" d="M196.4,141.15c0-43.24,32.73-77.18,77.78-77.18s77.48,33.94,77.48,77.18-32.73,77.18-77.48,77.18-77.78-33.93-77.78-77.18ZM274.18,172.08c15.92,0,29.13-11.41,29.13-30.93s-13.21-30.93-29.13-30.93-29.43,11.41-29.43,30.93,13.21,30.93,29.43,30.93Z"/>
      <path class="cls-3" d="M376.89,209.92V4.8c0-2.7,2.1-4.8,4.8-4.8h41.14c2.7,0,4.81,2.1,4.81,4.8v205.11c0,2.7-2.1,4.81-4.81,4.81h-41.14c-2.7,0-4.8-2.1-4.8-4.81Z"/>
      <path class="cls-3" d="M460.38,209.92V4.8c0-2.7,2.1-4.8,4.8-4.8h41.14c2.7,0,4.81,2.1,4.81,4.8v205.11c0,2.7-2.1,4.81-4.81,4.81h-41.14c-2.7,0-4.8-2.1-4.8-4.81Z"/>
      <path class="cls-3" d="M536.36,140.55c0-43.25,30.33-76.58,76.28-76.58s71.17,32.73,71.17,70.57c0,15.92-3.9,25.83-18.62,25.83h-79.58c5.41,13.51,18.32,18.62,36.64,18.62,8.41,0,18.02-.3,30.33-6.91,2.4-1.2,3.9-.6,5.41,1.8l13.81,19.22c1.2,1.8,1.5,4.2-1.5,6.91-12.31,12.61-31.23,18.32-52.25,18.32-48.35,0-81.68-32.43-81.68-77.78ZM639.06,125.83c-3-15.62-13.81-20.72-26.13-20.72s-24.32,5.71-28.23,20.72h54.36Z"/>
      <path class="cls-3" d="M719.85,257.97c-3.3-2.1-3.3-6.61-1.8-9.61l10.51-20.42c1.8-3.3,4.8-4.8,8.71-2.7,12.91,6.91,25.53,10.51,37.54,10.51,17.12,0,36.04-7.21,36.04-30.33v-11.71c-8.71,10.81-22.22,17.42-41.14,17.42-41.14,0-68.17-30.33-68.17-73.58s27.03-73.58,68.17-73.58c19.82,0,32.73,6.31,41.44,17.42l.9-9.01c0-2.7,2.1-4.81,4.81-4.81h37.24c2.7,0,4.81,2.1,4.81,4.81v133.04c0,55.56-43.55,70.87-78.98,70.87-22.52,0-44.15-6.01-60.06-18.32ZM779.91,166.07c16.82,0,28.83-11.11,28.83-28.83s-12.01-28.23-28.83-28.23-29.13,11.11-29.13,28.53,12.31,28.53,29.13,28.53Z"/>
      <path class="cls-3" d="M884.12,140.55c0-43.25,30.33-76.58,76.28-76.58s71.17,32.73,71.17,70.57c0,15.92-3.9,25.83-18.62,25.83h-79.58c5.41,13.51,18.32,18.62,36.64,18.62,8.41,0,18.02-.3,30.33-6.91,2.4-1.2,3.9-.6,5.41,1.8l13.81,19.22c1.2,1.8,1.5,4.2-1.5,6.91-12.31,12.61-31.23,18.32-52.25,18.32-48.35,0-81.68-32.43-81.68-77.78ZM986.83,125.83c-3-15.62-13.81-20.72-26.13-20.72s-24.32,5.71-28.23,20.72h54.36Z"/>
    </g>
    <path class="cls-2" d="M1079.85,51.29c1.43.92,2.32,1.82,3.4,3.12l-.19,1.45c-3.02,1.97-7.81,1.98-11.35,2.44-1.11,2.96-2.14,6.08-3.56,8.9-1.28,2.52-3.4,5.01-6.1,5.82l-1.01-1.31c-.34-4.75,1.42-8.79,2.89-13.24-21,2.75-47.82,2.55-69.55,3.55l-45.86-37.61c-3.9-2.98-9.09-6.44-11.97-10.41-1.09-1.51-2-3.13-1.67-5.03l1.49-.28c13.29,4.35,46.89,35.18,60.52,45.28,27.59.36,55.29-2.97,82.97-2.68Z"/>
    <path class="cls-2" d="M955.14,38.04c12.78,9.47,24.92,20.41,37.27,30.48,17.1-.96,34.19-2.1,51.26-3.41-1.38,4.93-3.83,18.92-7.44,21.99-16.27,3.36-35.12,4.43-51.76,5.01-12.29-9.12-25.19-20.37-35.56-31.66,1.69-7.58,3.99-14.98,6.23-22.41Z"/>
    <path class="cls-2" d="M1017.95,1.91c17.38,15.26,36.05,29.41,54.33,43.59-23.4-.45-47.51.87-70.85,2.59-1.5.09-2.32-.19-3.55-.98-6.36-4.05-12.3-9.72-18.2-14.45-10.98-8.73-22-17.39-33.08-25.99,8.47.11,17.1-.85,25.56-1.39,15.28-.85,30.54-1.97,45.78-3.36Z"/>
  </g>
</svg>